<svg width="74" height="70" viewBox="0 0 74 70" fill="none" xmlns="http://www.w3.org/2000/svg">
<path d="M7.33333 70C5.31667 70 3.58967 69.2826 2.15233 67.8477C0.717444 66.4104 0 64.6834 0 62.6667V11.3334C0 9.31671 0.717444 7.58971 2.15233 6.15237C3.58967 4.71748 5.31667 4.00004 7.33333 4.00004H25.6667V11.3334H7.33333V62.6667H58.6667V43.05L66 50.3834V62.6667C66 64.6834 65.2826 66.4104 63.8477 67.8477C62.4103 69.2826 60.6833 70 58.6667 70H7.33333ZM11 55.3334L22 40.6667L30.25 51.6667L41.25 37L55 55.3334H11ZM68.0167 42.1334L56.65 30.7667C55.3667 31.6223 53.9917 32.2639 52.525 32.6917C51.0583 33.1195 49.5 33.3334 47.85 33.3334C43.3278 33.3334 39.4778 31.7298 36.3 28.5227C33.1222 25.3132 31.5333 21.4167 31.5333 16.8334C31.5333 12.25 33.1381 8.3536 36.3477 5.14404C39.5548 1.93693 43.45 0.333374 48.0333 0.333374C52.6167 0.333374 56.5131 1.93693 59.7227 5.14404C62.9298 8.3536 64.5333 12.25 64.5333 16.8334C64.5333 18.4834 64.2889 20.0723 63.8 21.6C63.3111 23.1278 62.7 24.5334 61.9667 25.8167L73.15 37L68.0167 42.1334ZM48.0333 26C50.6 26 52.7694 25.1139 54.5417 23.3417C56.3139 21.5695 57.2 19.4 57.2 16.8334C57.2 14.2667 56.3139 12.0973 54.5417 10.325C52.7694 8.55282 50.6 7.66671 48.0333 7.66671C45.4667 7.66671 43.2972 8.55282 41.525 10.325C39.7528 12.0973 38.8667 14.2667 38.8667 16.8334C38.8667 19.4 39.7528 21.5695 41.525 23.3417C43.2972 25.1139 45.4667 26 48.0333 26Z" fill="#1F1F1F"/>
</svg>
