<svg width="67" height="78" viewBox="0 0 67 78" fill="none" xmlns="http://www.w3.org/2000/svg">
<path d="M48 77.3334H33.3333C32.2944 77.3334 31.4242 76.9814 30.7226 76.2774C30.0186 75.5758 29.6666 74.7056 29.6666 73.6667V51.6667C29.6666 50.6278 30.0186 49.7564 30.7226 49.0524C31.4242 48.3508 32.2944 48 33.3333 48H37V37H7.66665C5.64998 37 3.9242 36.2814 2.48931 34.844C1.05198 33.4092 0.333313 31.6834 0.333313 29.6667V15C0.333313 12.9834 1.05198 11.2576 2.48931 9.82271C3.9242 8.38537 5.64998 7.66671 7.66665 7.66671H15V4.00004C15 2.96115 15.3508 2.08971 16.0523 1.38571C16.7563 0.684152 17.6278 0.333374 18.6666 0.333374H62.6666C63.7055 0.333374 64.5758 0.684152 65.2773 1.38571C65.9813 2.08971 66.3333 2.96115 66.3333 4.00004V18.6667C66.3333 19.7056 65.9813 20.577 65.2773 21.281C64.5758 21.9826 63.7055 22.3334 62.6666 22.3334H18.6666C17.6278 22.3334 16.7563 21.9826 16.0523 21.281C15.3508 20.577 15 19.7056 15 18.6667V15H7.66665V29.6667H37C39.0166 29.6667 40.7436 30.3842 42.181 31.819C43.6159 33.2564 44.3333 34.9834 44.3333 37V48H48C49.0389 48 49.9103 48.3508 50.6143 49.0524C51.3159 49.7564 51.6666 50.6278 51.6666 51.6667V73.6667C51.6666 74.7056 51.3159 75.5758 50.6143 76.2774C49.9103 76.9814 49.0389 77.3334 48 77.3334ZM37 70H44.3333V55.3334H37V70ZM22.3333 15H59V7.66671H22.3333V15Z" fill="#1F1F1F"/>
</svg>
