<svg width="60" height="74" viewBox="0 0 60 74" fill="none" xmlns="http://www.w3.org/2000/svg">
<path d="M30 44.3335C32.0166 44.3335 33.7436 43.6148 35.181 42.1775C36.6158 40.7426 37.3333 39.0168 37.3333 37.0002C37.3333 34.9835 36.6158 33.2565 35.181 31.8192C33.7436 30.3843 32.0166 29.6668 30 29.6668C27.9833 29.6668 26.2575 30.3843 24.8226 31.8192C23.3853 33.2565 22.6666 34.9835 22.6666 37.0002C22.6666 39.0168 23.3853 40.7426 24.8226 42.1775C26.2575 43.6148 27.9833 44.3335 30 44.3335ZM30 65.9668C32.5055 65.2946 34.9964 64.0565 37.4726 62.2525C39.9464 60.4509 42.1 58.4502 43.9333 56.2502L37.3333 49.6502C36.2333 50.3224 35.0575 50.8272 33.806 51.1645C32.552 51.4994 31.2833 51.6668 30 51.6668C25.9666 51.6668 22.5138 50.2307 19.6416 47.3585C16.7694 44.4863 15.3333 41.0335 15.3333 37.0002C15.3333 32.9668 16.7694 29.5141 19.6416 26.6418C22.5138 23.7696 25.9666 22.3335 30 22.3335C34.0333 22.3335 37.4861 23.7696 40.3583 26.6418C43.2305 29.5141 44.6666 32.9668 44.6666 37.0002C44.6666 38.3446 44.4992 39.6426 44.1643 40.8942C43.827 42.1482 43.3222 43.3557 42.65 44.5168L48.15 50.0168C49.3722 47.5113 50.3194 44.8835 50.9916 42.1335C51.6638 39.3835 52 36.5724 52 33.7002V16.3752L30 8.12516L7.99996 16.3752V33.7002C7.99996 41.0946 10.0777 47.8168 14.2333 53.8668C18.3888 59.9168 23.6444 63.9502 30 65.9668ZM30 73.6668C21.5055 71.5279 14.4936 66.6537 8.96429 59.0442C3.43252 51.437 0.666626 42.9891 0.666626 33.7002V11.3335L30 0.333496L59.3333 11.3335V33.7002C59.3333 42.9891 56.5686 51.437 51.0393 59.0442C45.5075 66.6537 38.4944 71.5279 30 73.6668Z" fill="#1F1F1F"/>
</svg>
